<svg viewBox="0 0 1991 499" xmlns="http://www.w3.org/2000/svg" xmlns:xlink="http://www.w3.org/1999/xlink"><defs><path id="a" d="m150 0 150 94-150 94-150-94z"/><mask id="b" fill="#fff"><use fill="#fff" fill-rule="evenodd" xlink:href="#a"/></mask></defs><g fill="none" fill-rule="evenodd"><g fill-rule="nonzero" transform="translate(128 110)"><g transform="translate(0 92)"><use fill="#0c5166" xlink:href="#a"/><path d="m150-57.8461538 150 94-150 93.9999998-150-93.9999998z" fill="#093247" mask="url(#b)" opacity=".6"/></g><path d="m150 0 150 94-150 94-150-94zm.461538 50.6153846-68.5384611 43.3846154 68.5384611 43.384615 68.538462-43.384615z" fill="#05c5cc"/></g><g transform="translate(575 169)"><g fill="#1f2337"><path d="m3.89087383 11h87.99360357c2.1488702 0 3.8908736 1.7320459 3.8908736 3.8686327v19.8391421c0 2.1365868-1.7420034 3.8686327-3.8908736 3.8686327h-59.0614663c-2.1488702 0-3.8908737 1.7320458-3.8908737 3.8686327v26.0884718c0 2.1365868 1.7420035 3.8686327 3.8908737 3.8686327h59.0614663c2.1488702 0 3.8908736 1.7320458 3.8908736 3.8686327v19.0455764c0 2.1365868-1.7420034 3.8686327-3.8908736 3.8686327h-59.0614663c-2.1488702 0-3.8908737 1.7320455-3.8908737 3.8686325v51.978552c.0269089 1.043103-.371111 2.052782-1.1037283 2.799889-.7326172.747107-1.737701 1.168283-2.7871453 1.16794h-21.15038997c-2.16491226-.05383-3.89155048-1.814619-3.89087363-3.967829v-140.1635383c.05253566-2.1145724 1.76414449-3.8163973 3.89087363-3.8686327z"/><path d="m112.778872 104.421558c-.16348-15.3207745 5.881403-30.057393 16.761891-40.8632542 10.880489-10.8058611 25.6732-16.7639169 41.018796-16.521127 15.180853-.5581949 29.914519 5.1896853 40.694038 15.8755098s16.640721 25.3538042 16.188504 40.5126144v10.56032h-81.930819c-1.36225.007054-2.62684.707157-3.354282 1.856997-.727441 1.14984-.817282 2.590638-.2383 3.821666 5.38061 11.468856 17.28491 18.440936 29.93818 17.534116 9.875426.500775 19.361575-3.898745 25.347659-11.755828 1.099631-1.631969 3.26791-2.151479 4.989697-1.195508l16.166617 9.962566c.978857.565881 1.662683 1.528903 1.873451 2.638354.210769 1.10945-.072375 2.255554-.775718 3.139935-11.474311 14.668548-29.381251 22.845022-48.000882 21.917645-15.631998.911882-30.922193-4.812696-42.098586-15.761515-11.176394-10.948818-17.198335-26.102416-16.580246-41.722491zm34.129525-12.453208h46.903148c1.36225-.0070542 2.62684-.7071565 3.354281-1.8569966.727442-1.1498401.817283-2.5906382.238301-3.821666-4.967508-10.1205857-15.582657-16.2268079-26.844568-15.4419776-11.21279-.36713-21.690154 5.5549042-27.14395 15.3423519-.681172 1.2180191-.655994 2.7071104.065967 3.9014852.72196 1.1943749 2.029885 1.9106998 3.426821 1.8768031z" fill-rule="nonzero"/><path d="m238.440718 129.048366c0-23.128409 18.685269-37.0455045 49.694865-37.0455045h28.823022v-1.4017218c0-12.1148813-7.653009-20.0245972-23.754145-20.0245972-9.399387-.6100608-18.436394 3.7521184-23.853536 11.5141434-1.124687 1.64929-3.265941 2.2414217-5.068876 1.4017218l-18.287711-9.1111917c-1.043522-.5508197-1.790794-1.5395028-2.04026-2.6993786-.249466-1.1598757.02457-2.3714747.748194-3.3080006 12.160388-14.2121412 30.089768-22.0634325 48.700968-21.3261961 32.500442 0 50.788153 16.7205387 50.788153 44.7549749v63.9785884c.026807 1.052853-.369712 2.071971-1.099566 2.826062s-1.731147 1.179204-2.776634 1.178857h-19.380997c-2.195658 0-3.97559-1.793063-3.97559-4.004919v-13.015988c-9.458363 12.418186-24.221669 19.556853-39.755892 19.223613-24.549264 0-38.761995-13.41648-38.761995-32.940463zm78.319108-10.012298v-5.907256h-25.543161c-16.896254 0-23.356587 5.106272-23.356587 13.917095s5.665215 12.014758 17.095034 12.014758c13.700887-.064021 26.148171-8.046998 32.003493-20.525212z" fill-rule="nonzero"/><path d="m359.054608 48.5347454h12.556068c1.038988.0279544 2.043698-.3759635 2.778635-1.1170789s1.135488-1.7542715 1.107766-2.8019941v-17.7865624c.022563-1.4129855.779285-2.7102266 1.993027-3.4166278l19.930266-11.8577082c1.208825-.7283309 2.713776-.7403063 3.933848-.0313031 1.220073.7090032 1.964383 2.0280592 1.945581 3.4479309v30.1467158c0 2.1644443 1.740001 3.9190731 3.886402 3.9190731h21.126082c2.1464 0 3.886401 1.7546288 3.886401 3.9190731v17.183628c.026878 1.0567027-.370684 2.0795465-1.102459 2.8363947-.731776.7568482-1.735704 1.183515-2.783942 1.1831674h-21.225734c-2.1464 0-3.886402 1.7546288-3.886402 3.9190731v41.602468c0 11.757219 4.882915 15.776781 12.057811 15.776781 2.486209.020237 4.931351-.639597 7.075245-1.909292 1.848209-.984504 4.137591-.318553 5.181869 1.507336l8.868968 15.374825c1.104297 1.752636.617357 4.073883-1.096164 5.225431-7.003418 4.336825-15.102429 6.535658-23.318412 6.33081-23.019457 0-36.472387-11.053796-36.472387-41.301001v-42.8083361c.027722-1.0477226-.372829-2.0608788-1.107766-2.8019942s-1.739647-1.1450332-2.778635-1.1170789h-12.556068c-1.048238.0003476-2.052167-.4263192-2.783942-1.1831674s-1.129338-1.779692-1.10246-2.8363947v-17.4850952c0-1.0394028.409459-2.0362344 1.138301-2.7712031.728842-.7349688 1.717363-1.14787 2.748101-1.14787z"/><path d="m450.942278 115.958963v-62.0731631c.052025-2.1239559 1.747017-3.8333327 3.853098-3.8857999h20.747451c2.128008 0 3.853099 1.7397319 3.853099 3.8857999v58.1873631c0 15.543199 7.113412 25.108245 22.229412 25.108245 13.140053 0 22.822197-9.963589 22.822197-26.70242v-56.5931881c0-2.146068 1.725091-3.8857999 3.853098-3.8857999h20.549857c2.143893.054069 3.853768 1.8226707 3.853098 3.9854358v101.9275202c0 2.146068-1.725091 3.8858-3.853098 3.8858h-19.759478c-1.038914.026874-2.044539-.370627-2.788646-1.102289s-1.163591-1.735435-1.163249-2.783511v-9.963589c-7.201831 10.305533-19.0178 16.319692-31.516367 16.041379-27.070485.199272-42.680472-16.938102-42.680472-46.031783z"/><path d="m580.650918 49.0645596h19.529229c2.08154.0524849 3.75678 1.762438 3.8082 3.8871099v13.0567023c4.662868-12.1668579 16.524666-19.834997 29.293843-18.9372018 4.99156.0025834 9.9457.8790947 14.646922 2.5914065 1.979259.7907627 3.008132 3.02242 2.343508 5.0831437l-7.225815 19.9338967c-.369618 1.0196295-1.131155 1.8409572-2.108237 2.27376s-2.084947.4395353-3.067009.0186381c-3.432758-1.3115903-7.076178-1.9539485-10.741076-1.8937202-14.158691 0-23.337428 7.2758723-23.337428 25.8143962v54.12053c.000662 2.163494-1.689288 3.932692-3.8082 3.986779h-19.529229c-2.118912-.054087-3.808862-1.823285-3.8082-3.986779v-102.0615515c.025576-1.0574692.461821-2.0612159 1.212694-2.7902603.750872-.7290443 1.754812-1.1236165 2.790798-1.0968496z"/><path d="m653.509919 104.429901c-.190805-15.313756 5.83686-30.053137 16.711174-40.8636493s25.670186-16.7724922 41.020266-16.5290695c15.194157-.558276 29.940734 5.1904393 40.729699 15.8778163 10.788965 10.6873771 16.655305 25.357488 16.202691 40.5185005v10.561855h-81.802855c-1.363443.007055-2.629141.707259-3.35722 1.857266s-.817999 2.591015-.23851 3.822221c5.270045 9.70047 14.992783 16.18778 25.992243 17.342821 10.999459 1.155041 21.86315-3.17051 29.042401-11.563693 1.063947-1.618237 3.20107-2.14035 4.894187-1.195681l16.180785 9.964013c.995644.548405 1.701308 1.503502 1.931737 2.614551s-.037395 2.267071-.733161 3.164577c-11.537218 14.659609-29.482119 22.830445-48.142827 21.92083-15.595215.824551-30.817687-4.939667-41.93641-15.87985-11.118723-10.940184-17.105943-26.045083-16.4942-41.612508zm34.059552-12.4550174h46.944251c1.363443-.0070553 2.629141-.7072593 3.35722-1.8572665s.817999-2.5910146.23851-3.8222213c-4.950852-10.1416289-15.589874-16.2571133-26.868093-15.4442211-11.187199-.3294045-21.625919 5.5882341-27.067855 15.344581-.672497 1.2025794-.656784 2.6703972.041304 3.8583754.698087 1.1879782 1.97428 1.9186781 3.354663 1.9207525z" fill-rule="nonzero"/></g><path d="m786.157289 14.9301177c0-2.1356754 1.744936-3.8669824 3.897423-3.8669824h54.863723c14.720103-.7134543 29.082226 4.6448345 39.681582 14.8045924 10.599356 10.159758 16.492157 24.2163405 16.281414 38.837394.1217 14.655306-5.816568 28.7195135-16.429946 38.9127213-10.613379 10.193209-24.974029 15.624311-39.732918 15.026725h-25.683018c-2.130309.052213-3.844798 1.753312-3.897423 3.866983v32.522313c.000678 2.152292-1.728866 3.912329-3.897422 3.966136h-21.185992c-1.051211.000343-2.057986-.420653-2.791837-1.167441-.73385-.746789-1.13254-1.756037-1.105586-2.798695zm28.980837 26.1764961v47.2961692c0 2.1356754 1.744936 3.8669824 3.897423 3.8669824h24.483811c10.268432.6129816 20.032586-4.4742696 25.353496-13.2095 5.320909-8.7352304 5.320909-19.6775968 0-28.4128272-5.32091-8.7352304-15.085064-13.8224816-25.353496-13.2094999h-24.084075c-1.067034-.1102941-2.132705.2206867-2.945906.9149523-.8132.6942656-1.302011 1.6904155-1.351253 2.7537232z" fill="#05c5cc" fill-rule="nonzero"/><path d="m912.90129 104.432501c-.190805-15.314449 5.83687-30.0544973 16.711204-40.8654992 10.874333-10.8110018 25.670232-16.7732517 41.020339-16.5298179 15.194184-.5583013 29.940787 5.1906743 40.729767 15.8785353 10.78899 10.6878609 16.65534 25.3586361 16.20272 40.5203358v10.562332h-81.902878c-1.363445.007056-2.629146.707291-3.357226 1.857351-.72808 1.150059-.818 2.591132-.23851 3.822394 5.270054 9.700909 14.99281 16.188512 25.992289 17.343606 10.999479 1.155093 21.863189-3.170653 29.042452-11.564216 1.06395-1.618311 3.201073-2.140448 4.894193-1.195736l16.2807 9.964465c.97972.565988 1.66414 1.529194 1.8751 2.638856.21095 1.109662-.07244 2.255984-.7764 3.140533-11.53724 14.660273-29.482176 22.831478-48.142917 21.921823-15.578379.795573-30.773902-4.981769-41.870205-15.919063-11.096302-10.937294-17.070189-26.026008-16.460628-41.575899zm34.059613-12.455581h46.744571c1.363446-.0070555 2.629147-.7072913 3.357227-1.8573505.72808-1.1500593.818-2.5911319.23851-3.8223944-4.950861-10.1420882-15.589902-16.2578495-26.868141-15.4449204-11.045178-.1800511-21.293814 5.7171262-26.668377 15.3452757-.657754 1.1719931-.662222 2.5997525-.011814 3.7758192.650407 1.1760668 1.863465 1.9336816 3.208024 2.0035704z" fill="#05c5cc" fill-rule="nonzero"/><path d="m1042.59794 104.421558c-.1908-15.3115312 5.83683-30.048771 16.71108-40.8577129s25.67004-16.7700557 41.02003-16.5266683c15.19407-.5581949 29.94056 5.1896853 40.72946 15.8755098 10.78891 10.6858245 16.65521 25.3538042 16.2026 40.5126144v10.56032h-81.90226c-1.36344.007054-2.62913.707157-3.3572 1.856997-.72808 1.14984-.818 2.590638-.23851 3.821666 5.36318 11.488938 17.29317 18.469987 29.96424 17.534116 9.88402.500775 19.37843-3.898745 25.36973-11.755828 1.10059-1.631969 3.27075-2.151479 4.99404-1.195508l16.18069 9.962566c.99564.548326 1.7013 1.503283 1.93173 2.614171.23042 1.110888-.0374 2.266742-.73316 3.164118-11.53715 14.657479-29.48195 22.827128-48.14255 21.917645-15.64561.911882-30.94911-4.812696-42.13524-15.761515-11.18612-10.948818-17.2133-26.102416-16.59468-41.722491zm34.05936-12.453208h46.74422c1.36343-.0070542 2.62912-.7071565 3.3572-1.8569966.72807-1.1498401.81799-2.5906382.23851-3.821666-4.95083-10.1401557-15.58979-16.2547517-26.86794-15.4419776-11.0451-.1800168-21.29366 5.7160369-26.66818 15.3423519-.65775 1.1717697-.66221 2.5992571-.01181 3.7750997.6504 1.1758427 1.86345 1.9333131 3.208 2.0031886z" fill="#05c5cc" fill-rule="nonzero"/><path d="m1214.88388 118.386095-12.71094 14.103042c-.63464.713944-.98981 1.630301-1.00086 2.582247v20.955928c.027 1.04438-.3723 2.055296-1.10727 2.803318s-1.74328 1.169713-2.79609 1.16937h-20.01722c-2.21105 0-4.00345-1.778633-4.00345-3.972688v-152.05462403c0-2.19405487 1.7924-3.97268776 4.00345-3.97268776h20.01722c1.05281-.00034349 2.06112.42134771 2.79609 1.16936984s1.13427 1.75893797 1.10727 2.80331792v87.00186193c-.00339 1.6333477 1.02613 3.0932757 2.57368 3.6496747 1.54755.5563991 3.28052.0896826 4.33226-1.1667448l36.73161-41.7132215c.72443-.9067339 1.83694-1.4219141 3.00259-1.3904407h22.91972c1.53805.0026936 2.93112.9013903 3.55778 2.2951921.62667 1.3938018.37009 3.0228422-.65528 4.1604255l-32.92834 37.9391681c-1.10217 1.4008869-1.10217 3.3663384 0 4.7672253l37.63239 54.3265054c.79726 1.199441.87971 2.732602.2156 4.009425-.66411 1.276822-1.97125 2.098287-3.41836 2.148241h-22.81964c-1.27798-.023174-2.468-.650513-3.20275-1.688393l-28.42446-39.230291c-.63521-.913172-1.63457-1.512172-2.74469-1.645124-1.11013-.132951-2.22441.212915-3.06031.949903z" fill="#05c5cc"/></g></g></svg>