<svg height="400" viewBox="0 0 2164 400" width="2164" xmlns="http://www.w3.org/2000/svg" xmlns:xlink="http://www.w3.org/1999/xlink"><defs><path id="a" d="m130 0 130 78-130 78-130-78z"/><path id="b" d="m1588.37126 127.6h44.6c10.53339 0 20.23329 1.299987 29.1 3.9 8.86672 2.600013 16.49997 6.666639 22.9 12.2 6.40004 5.533361 11.39999 12.499958 15 20.9 3.60002 8.400042 5.4 18.399942 5.4 30 0 11.200056-1.79998 20.966625-5.4 29.3-3.60001 8.333375-8.59996 15.266639-15 20.8-6.40003 5.533361-14.06662 9.63332-23 12.3-8.93337 2.66668-18.66661 4-29.2 4h-44.4zm44 116.2c16.66675 0 29.63329-4.099959 38.9-12.3 9.26672-8.200041 13.9-20.366586 13.9-36.5 0-16.266748-4.46662-28.699957-13.4-37.3-8.93337-8.600043-22.26657-12.9-40-12.9h-24.2v99zm180.26437 3.6c-1.06667 1.200006-2.66665 2.733324-4.8 4.6-2.13334 1.866676-4.89998 3.666658-8.3 5.4-3.40001 1.733342-7.39997 3.233327-12 4.5-4.60002 1.266673-9.8333 1.9-15.7 1.9-7.20003 0-13.79997-1.199988-19.8-3.6s-11.13331-5.799978-15.4-10.2-7.56665-9.666636-9.9-15.8c-2.33334-6.133364-3.5-12.933296-3.5-20.4 0-6.800034 1.13332-13.166637 3.4-19.1s5.46665-11.066645 9.6-15.4c4.13336-4.333355 9.03331-7.766654 14.7-10.3 5.6667-2.533346 11.89997-3.8 18.7-3.8 8.00004 0 14.86664 1.533318 20.6 4.6s10.43332 7.133308 14.1 12.2c3.66669 5.066692 6.36666 10.866634 8.1 17.4s2.6 13.333298 2.6 20.4h-73.4c.13334 4.133354 1.03333 7.933316 2.7 11.4 1.66668 3.466684 3.89999 6.466654 6.7 9 2.80002 2.533346 5.99998 4.533326 9.6 6s7.39998 2.2 11.4 2.2c7.86671 0 14.33331-1.33332 19.4-4s8.73332-5.266654 11-7.8zm-16.2-41c-.53333-7.200036-3.06664-13.333308-7.6-18.4-4.53335-5.066692-10.93329-7.6-19.2-7.6-4.26669 0-8.09998.733326-11.5 2.2-3.40001 1.466674-6.29999 3.399988-8.7 5.8s-4.26666 5.166651-5.6 8.3-2.06666 6.36665-2.2 9.7zm37.86437 54.6v-83.5c0-3.000015-.06667-6.16665-.2-9.5h17.2l.6 14c1.06667-1.600008 2.46666-3.366657 4.2-5.3s3.79999-3.699992 6.2-5.3 5.23332-2.933328 8.5-4 7.03331-1.6 11.3-1.6c7.20004 0 13.16664 1.433319 17.9 4.3s8.43332 7.033306 11.1 12.5c3.73335-4.400022 8.29997-8.299983 13.7-11.7s12.09996-5.1 20.1-5.1c12.00006 0 20.86664 3.566631 26.6 10.7s8.6 16.69994 8.6 28.7v55.8h-18v-54.4c0-8.66671-1.69998-15.033313-5.1-19.1s-8.36663-6.1-14.9-6.1c-3.73335 0-7.16665.766659-10.3 2.3s-5.86666 3.566654-8.2 6.1c-2.33335 2.533346-4.13333 5.499983-5.4 8.9s-1.9 6.966648-1.9 10.7v51.6h-18v-54.4c0-8.66671-1.69998-15.033313-5.1-19.1s-8.29997-6.1-14.7-6.1c-4.93336 0-9.06665 1.066656-12.4 3.2s-6.03332 4.899983-8.1 8.3-3.53333 7.299978-4.4 11.7-1.3 8.799978-1.3 13.2v43.2zm214.06437 2.8c-7.20004 0-13.79997-1.299987-19.8-3.9s-11.16665-6.166644-15.5-10.7c-4.33336-4.533356-7.73332-9.766637-10.2-15.7s-3.7-12.299966-3.7-19.1 1.23332-13.166637 3.7-19.1 5.86664-11.166644 10.2-15.7c4.33335-4.533356 9.49997-8.099987 15.5-10.7s12.59996-3.9 19.8-3.9c7.0667 0 13.59997 1.299987 19.6 3.9s11.19998 6.166644 15.6 10.7 7.83332 9.766637 10.3 15.7 3.7 12.299966 3.7 19.1-1.23332 13.166637-3.7 19.1-5.89998 11.166644-10.3 15.7-9.59997 8.099987-15.6 10.7-12.5333 3.9-19.6 3.9zm0-15.6c4.80002 0 9.13331-.966657 13-2.9 3.86668-1.933343 7.13332-4.466651 9.8-7.6s4.69999-6.733313 6.1-10.8c1.4-4.066687 2.1-8.233312 2.1-12.5 0-4.133354-.7-8.233313-2.1-12.3-1.40001-4.066687-3.46666-7.699984-6.2-10.9-2.73335-3.200016-5.99998-5.766657-9.8-7.7s-8.09998-2.9-12.9-2.9c-4.80003 0-9.13332.966657-13 2.9-3.86669 1.933343-7.13332 4.466651-9.8 7.6s-4.7 6.733313-6.1 10.8c-1.40001 4.066687-2.1 8.233312-2.1 12.5s.69999 8.39998 2.1 12.4c1.4 4.00002 3.46665 7.599984 6.2 10.8 2.73334 3.200016 5.99998 5.766657 9.8 7.7s8.09997 2.9 12.9 2.9z"/><mask id="c" fill="#fff"><use fill="#fff" fill-rule="evenodd" xlink:href="#a"/></mask></defs><g fill="none" fill-rule="evenodd"><g fill-rule="nonzero" transform="translate(70 84)"><g transform="translate(0 76)"><use fill="#0c5166" xlink:href="#a"/><path d="m130-48 130 78-130 78-130-78z" fill="#093247" mask="url(#c)" opacity=".6"/></g><path d="m130 0 130 78-130 78-130-78zm.4 42-59.4 36 59.4 36 59.4-36z" fill="#05c5cc"/></g><path d="m455 128h83.768209v17.174743h-64.575493v40.740088h49.181336v16.975037h-49.181336v58.314244h-19.192716zm175.733308 119.624082c-1.066267 1.198244-2.665644 2.729311-4.798179 4.593245-2.132535 1.863935-4.898124 3.661274-8.296851 5.392071s-7.39717 3.228579-11.995448 4.493392-9.829574 1.89721-15.694044 1.89721c-7.197305 0-13.794735-1.198226-19.792489-3.594714-5.997753-2.396487-11.129088-5.791461-15.394157-10.185022-4.26507-4.393561-7.563785-9.652441-9.896245-15.776799-2.33246-6.124357-3.498672-12.914304-3.498672-20.370044 0-6.790048 1.132892-13.147302 3.39871-19.071953 2.265818-5.92465 5.464572-11.050394 9.596358-15.377386s9.029878-7.755249 14.694424-10.284875c5.664545-2.529626 11.895451-3.79442 18.692906-3.79442 7.997005 0 14.860998 1.531067 20.592185 4.593245 5.731187 3.062179 10.429357 7.122834 14.094651 12.182085 3.665294 5.059252 6.364242 10.850678 8.096927 17.37445 1.732684 6.523772 2.599014 13.313719 2.599014 20.370044h-73.372155c.133283 4.127284 1.032933 7.921666 2.698976 11.38326 1.666042 3.461593 3.898506 6.457158 6.697458 8.986784s5.997706 4.526669 9.596358 5.991189c3.598652 1.464521 7.397173 2.19677 11.395675 2.19677 7.863722 0 14.327871-1.331362 19.392641-3.994126 5.064769-2.662765 8.730008-5.258921 10.995827-7.788547zm-16.193854-40.939794c-.533134-7.189463-3.065481-13.313729-7.597117-18.372981s-10.929144-7.58884-19.192716-7.58884c-4.26507 0-8.096911.732249-11.495638 2.196769-3.398727 1.464521-6.297598 3.394996-8.696699 5.791484-2.399102 2.396487-4.265042 5.159064-5.597876 8.287812-1.332834 3.128747-2.065882 6.357301-2.199165 9.685756zm96.563353 10.584434c-.533133-.133138-1.566064-.299558-3.098824-.499265-1.532759-.199708-3.298738-.366128-5.297989-.499266s-4.131754-.266275-6.397572-.399413-4.464962-.199706-6.597496-.199706c-5.06477 0-9.163174.599113-12.295334 1.797357-3.132161 1.198244-5.597867 2.696026-7.397193 4.493392s-3.032179 3.794409-3.698596 5.991189c-.666417 2.196781-.999621 4.293676-.999621 6.290749 0 5.059252 1.732659 8.886918 5.198027 11.483113 3.465369 2.596195 8.2635 3.894273 14.394538 3.894273 3.465368 0 6.764084-.599113 9.896244-1.797356 3.13216-1.198244 5.89775-2.795879 8.296851-4.792952 2.399102-1.997073 4.331682-4.326957 5.7978-6.989721 1.466117-2.662764 2.199165-5.392056 2.199165-8.187959zm.199924 32.751836c-3.465368 4.659837-8.030257 8.121379-13.694802 10.384728-5.664546 2.26335-11.495608 3.395008-17.493361 3.395008-3.86522 0-7.69706-.499261-11.495638-1.497798-3.798577-.998536-7.263894-2.662739-10.396054-4.992658-3.132161-2.329918-5.664508-5.325483-7.597117-8.986784-1.93261-3.6613-2.8989-8.154648-2.8989-13.480176 0-9.985366 3.498637-17.973538 10.496017-23.964758 6.997379-5.991219 17.093446-8.986784 30.288505-8.986784 2.132535 0 4.398319.066568 6.79742.199707 2.399102.133138 4.664886.266274 6.797421.399412 2.132534.133138 3.998474.266275 5.597875.399413s2.732293.266274 3.39871.399412v-3.395007c0-6.923187-2.099182-11.882511-6.29761-14.87812-4.198427-2.99561-9.896208-4.493392-17.093513-4.493392-7.064021 0-12.66184.965237-16.793626 2.895741s-7.597103 3.894263-10.396055 5.891336l-8.396813-12.182085c1.599401-1.331382 3.531981-2.662744 5.797799-3.994126s4.931447-2.562892 7.996965-3.694567c3.065519-1.131675 6.530836-2.063628 10.396055-2.795888s8.330147-1.098385 13.394917-1.098385c11.995507 0 21.425168 2.895713 28.289264 8.687225s10.296092 14.012673 10.296092 24.66373v54.020558c0 3.261886.066641 6.024462.199924 8.287812h-16.793626zm47.581943-66.701909h-16.793627v-14.977974h16.793627v-30.355359h17.993171v30.355359h27.189682v14.977974h-27.189682v45.732746c0 7.45574 1.166213 12.581484 3.498672 15.377386 2.33246 2.795903 5.631175 4.193833 9.896245 4.193833 3.465369 0 6.330919-.532545 8.596737-1.597651 2.265818-1.065105 4.531602-2.66274 6.797421-4.792951l8.196889 10.983847c-3.865219 3.72787-7.830342 6.423878-11.895486 8.088106-4.065144 1.664227-8.896595 2.496329-14.494499 2.496329-9.862973 0-17.09349-2.662725-21.691768-7.988253s-6.897382-13.646541-6.897382-24.963289zm68.174127-14.977974h17.993172v54.519824c0 8.787122 1.799299 15.144376 5.397951 19.071953s8.796628 5.891337 15.594082 5.891337c5.198053 0 9.496379-1.06509 12.895106-3.195301 3.398727-2.130212 6.164317-4.892788 8.296852-8.287813 2.132534-3.395024 3.63195-7.255974 4.498292-11.582966.866343-4.326992 1.299507-8.753771 1.299507-13.28047v-43.136564h17.993172v83.377387c0 2.995609.06664 6.157594.199924 9.48605h-17.193475l-.599772-13.779736c-1.199551 1.597658-2.665647 3.328429-4.398331 5.192364-1.732685 1.863935-3.865187 3.561422-6.397572 5.092511s-5.464577 2.829168-8.796662 3.894273c-3.332085 1.065106-7.130606 1.597651-11.395675 1.597651-12.128791 0-21.058646-3.494826-26.789833-10.484582s-8.596738-16.542279-8.596738-28.657856zm106.959408 92.863437v-83.976506c0-2.862471-.06664-5.824752-.199924-8.886931h17.193475l.599773 14.977974c1.066267-1.597658 2.465722-3.361713 4.198406-5.292217 1.732685-1.930504 3.831867-3.694559 6.29761-5.292218 2.465744-1.597658 5.331294-2.962304 8.596738-4.093979s7.030644-1.697504 11.295713-1.697504c1.999251 0 3.831871.133136 5.497914.399413 1.666042.266276 3.232099.665685 4.698217 1.198238l-3.998483 16.77533c-2.399102-.931967-5.464574-1.397944-9.19651-1.397944-3.865219 0-7.430497.732249-10.695941 2.196769-3.265443 1.464521-6.097674 3.494848-8.496775 6.091043-2.399102 2.596195-4.298362 5.625044-5.697838 9.086637-1.399476 3.461594-2.099203 7.12284-2.099203 10.983848v48.928047zm153.541731-13.58003c-1.06627 1.198244-2.66565 2.729311-4.79818 4.593245-2.13253 1.863935-4.89812 3.661274-8.29685 5.392071s-7.39717 3.228579-11.99545 4.493392-9.82957 1.89721-15.69404 1.89721c-7.19731 0-13.79474-1.198226-19.79249-3.594714-5.99776-2.396487-11.12909-5.791461-15.39416-10.185022s-7.56378-9.652441-9.89624-15.776799c-2.332463-6.124357-3.498676-12.914304-3.498676-20.370044 0-6.790048 1.132892-13.147302 3.398706-19.071953 2.26582-5.92465 5.46458-11.050394 9.59636-15.377386 4.13179-4.326992 9.02988-7.755249 14.69443-10.284875 5.66454-2.529626 11.89545-3.79442 18.6929-3.79442 7.99701 0 14.861 1.531067 20.59219 4.593245 5.73118 3.062179 10.42935 7.122834 14.09465 12.182085 3.66529 5.059252 6.36424 10.850678 8.09693 17.37445 1.73268 6.523772 2.59901 13.313719 2.59901 20.370044h-73.37216c.13329 4.127284 1.03294 7.921666 2.69898 11.38326 1.66604 3.461593 3.89851 6.457158 6.69746 8.986784s5.9977 4.526669 9.59636 5.991189c3.59865 1.464521 7.39717 2.19677 11.39567 2.19677 7.86372 0 14.32787-1.331362 19.39264-3.994126 5.06477-2.662765 8.73001-5.258921 10.99583-7.788547zm-16.19386-40.939794c-.53313-7.189463-3.06548-13.313729-7.59711-18.372981-4.53164-5.059252-10.92915-7.58884-19.19272-7.58884-4.26507 0-8.09691.732249-11.49564 2.196769-3.39872 1.464521-6.29759 3.394996-8.69669 5.791484-2.39911 2.396487-4.26505 5.159064-5.59788 8.287812-1.33283 3.128747-2.06588 6.357301-2.19917 9.685756zm45.38278-78.684288h42.18399c9.06328 0 16.56036 1.264794 22.49147 3.79442s10.6626 5.724895 14.19461 9.585903 5.99772 8.187935 7.39719 12.98091c1.39948 4.792976 2.09921 9.452743 2.09921 13.979442 0 6.656911-1.1329 12.514904-3.39871 17.574156-2.26582 5.059252-5.39794 9.286327-9.39644 12.681351s-8.76331 5.957896-14.29457 7.688693-11.56225 2.596182-18.09314 2.596182h-24.19082v52.323055h-18.99279zm42.98369 64.50514c8.26357 0 14.62776-2.096896 19.09275-6.290749 4.465-4.193854 6.69746-10.018563 6.69746-17.474303 0-7.588878-2.2991-13.546723-6.89738-17.873715s-10.89583-6.490455-18.89283-6.490455h-23.9909v48.129222zm144.1453 55.118942c-1.06627 1.198244-2.66565 2.729311-4.79818 4.593245-2.13254 1.863935-4.89813 3.661274-8.29686 5.392071-3.39872 1.730797-7.39716 3.228579-11.99544 4.493392s-9.82958 1.89721-15.69405 1.89721c-7.1973 0-13.79473-1.198226-19.79249-3.594714-5.99775-2.396487-11.12908-5.791461-15.39415-10.185022s-7.56379-9.652441-9.89625-15.776799c-2.33246-6.124357-3.49867-12.914304-3.49867-20.370044 0-6.790048 1.13289-13.147302 3.39871-19.071953 2.26582-5.92465 5.46457-11.050394 9.59636-15.377386 4.13178-4.326992 9.02988-7.755249 14.69442-10.284875 5.66455-2.529626 11.89545-3.79442 18.69291-3.79442 7.997 0 14.861 1.531067 20.59218 4.593245 5.73119 3.062179 10.42936 7.122834 14.09465 12.182085 3.6653 5.059252 6.36425 10.850678 8.09693 17.37445 1.73269 6.523772 2.59901 13.313719 2.59901 20.370044h-73.37215c.13328 4.127284 1.03293 7.921666 2.69898 11.38326 1.66604 3.461593 3.8985 6.457158 6.69745 8.986784 2.79896 2.529626 5.99771 4.526669 9.59636 5.991189 3.59865 1.464521 7.39717 2.19677 11.39568 2.19677 7.86372 0 14.32787-1.331362 19.39264-3.994126 5.06477-2.662765 8.73001-5.258921 10.99582-7.788547zm-16.19386-40.939794c-.53313-7.189463-3.06548-13.313729-7.59712-18.372981-4.53163-5.059252-10.92914-7.58884-19.19271-7.58884-4.26507 0-8.09691.732249-11.49564 2.196769-3.39873 1.464521-6.2976 3.394996-8.6967 5.791484-2.3991 2.396487-4.26504 5.159064-5.59787 8.287812-1.33284 3.128747-2.06589 6.357301-2.19917 9.685756zm119.3547 40.939794c-1.06626 1.198244-2.66564 2.729311-4.79817 4.593245-2.13254 1.863935-4.89813 3.661274-8.29686 5.392071-3.39872 1.730797-7.39717 3.228579-11.99544 4.493392-4.59828 1.264813-9.82958 1.89721-15.69405 1.89721-7.1973 0-13.79473-1.198226-19.79249-3.594714-5.99775-2.396487-11.12908-5.791461-15.39415-10.185022s-7.56379-9.652441-9.89625-15.776799c-2.33246-6.124357-3.49867-12.914304-3.49867-20.370044 0-6.790048 1.13289-13.147302 3.39871-19.071953 2.26582-5.92465 5.46457-11.050394 9.59636-15.377386 4.13178-4.326992 9.02988-7.755249 14.69442-10.284875 5.66455-2.529626 11.89545-3.79442 18.69291-3.79442 7.997 0 14.861 1.531067 20.59218 4.593245 5.73119 3.062179 10.42936 7.122834 14.09465 12.182085 3.6653 5.059252 6.36425 10.850678 8.09693 17.37445 1.73269 6.523772 2.59901 13.313719 2.59901 20.370044h-73.37215c.13328 4.127284 1.03293 7.921666 2.69898 11.38326 1.66604 3.461593 3.8985 6.457158 6.69745 8.986784 2.79896 2.529626 5.99771 4.526669 9.59636 5.991189 3.59865 1.464521 7.39717 2.19677 11.39568 2.19677 7.86372 0 14.32787-1.331362 19.39264-3.994126 5.06477-2.662765 8.73001-5.258921 10.99582-7.788547zm-16.19385-40.939794c-.53313-7.189463-3.06548-13.313729-7.59712-18.372981-4.53163-5.059252-10.92914-7.58884-19.19271-7.58884-4.26507 0-8.09691.732249-11.49564 2.196769-3.39873 1.464521-6.2976 3.394996-8.6967 5.791484-2.3991 2.396487-4.26504 5.159064-5.59787 8.287812-1.33284 3.128747-2.06589 6.357301-2.19917 9.685756zm34.38695-78.684288h17.99317v78.484581l38.98521-38.143906h21.5918l-35.18664 34.349487 40.38467 58.51395h-21.39188l-31.58801-46.531572-12.79515 12.381792v34.14978h-17.99317z" fill="#103c52"/><use fill="#fff" xlink:href="#b"/><use fill="#103c52" xlink:href="#b"/></g></svg>