<svg height="400" viewBox="0 0 1622 400" width="1622" xmlns="http://www.w3.org/2000/svg" xmlns:xlink="http://www.w3.org/1999/xlink"><defs><path id="a" d="m130 0 130 78-130 78-130-78z"/><mask id="b" fill="#fff"><use fill="#fff" fill-rule="evenodd" xlink:href="#a"/></mask></defs><g fill="none" fill-rule="evenodd"><g fill-rule="nonzero" transform="translate(70 84)"><g transform="translate(0 76)"><use fill="#0c5166" xlink:href="#a"/><path d="m130-48 130 78-130 78-130-78z" fill="#093247" mask="url(#b)" opacity=".6"/></g><path d="m130 0 130 78-130 78-130-78zm.4 42-59.4 36 59.4 36 59.4-36z" fill="#05c5cc"/></g><path d="m455.2 127.6h83.8v17.2h-64.6v40.8h49.2v17h-49.2v58.4h-19.2zm175.8 119.8c-1.066672 1.200006-2.666656 2.733324-4.8 4.6s-4.899983 3.666658-8.3 5.4-7.399977 3.233327-12 4.5-9.833304 1.9-15.7 1.9c-7.200036 0-13.79997-1.199988-19.8-3.6s-11.133312-5.799978-15.4-10.2-7.566655-9.666636-9.9-15.8-3.5-12.933296-3.5-20.4c0-6.800034 1.133322-13.166637 3.4-19.1s5.466646-11.066645 9.6-15.4 9.033305-7.766654 14.7-10.3 11.899966-3.8 18.7-3.8c8.00004 0 14.866638 1.533318 20.6 4.6s10.433315 7.133308 14.1 12.2 6.366658 10.866634 8.1 17.4 2.6 13.333298 2.6 20.4h-73.4c.133334 4.133354 1.033325 7.933316 2.7 11.4s3.899986 6.466654 6.7 9 5.999982 4.533326 9.6 6 7.39998 2.2 11.4 2.2c7.866706 0 14.333308-1.33332 19.4-4s8.733322-5.266654 11-7.8zm-16.2-41c-.533336-7.200036-3.066644-13.333308-7.6-18.4s-10.933292-7.6-19.2-7.6c-4.266688 0-8.099983.733326-11.5 2.2s-6.299988 3.399988-8.7 5.8-4.26666 5.166651-5.6 8.3-2.066666 6.36665-2.2 9.7zm96.6 10.6c-.533336-.133334-1.566659-.299999-3.1-.5s-3.29999-.366666-5.3-.5-4.133322-.266666-6.4-.4-4.466656-.2-6.6-.2c-5.066692 0-9.166651.599994-12.3 1.8s-5.599991 2.699991-7.4 4.5-3.03333 3.799989-3.7 6-1 4.29999-1 6.3c0 5.066692 1.733316 8.899987 5.2 11.5s8.266636 3.9 14.4 3.9c3.466684 0 6.766651-.599994 9.9-1.8s5.899988-2.79999 8.3-4.8 4.333326-4.33332 5.8-7 2.2-5.399986 2.2-8.2zm.2 32.8c-3.466684 4.66669-8.033305 8.133322-13.7 10.4s-11.49997 3.4-17.5 3.4c-3.866686 0-7.699981-.499995-11.5-1.5s-7.266651-2.666655-10.4-5-5.666657-5.333315-7.6-9-2.9-8.16664-2.9-13.5c0-10.00005 3.499965-17.99997 10.5-24s17.099934-9 30.3-9c2.133344 0 4.399988.066666 6.8.2s4.666656.266666 6.8.4 3.999992.266666 5.6.4 2.73333.266666 3.4.4v-3.4c0-6.933368-2.099979-11.899985-6.3-14.9s-9.899964-4.5-17.1-4.5c-7.066702 0-12.666646.966657-16.8 2.9s-7.599986 3.89999-10.4 5.9l-8.4-12.2c1.600008-1.33334 3.533322-2.66666 5.8-4s4.933318-2.566661 8-3.7 6.533314-2.066663 10.4-2.8 8.333308-1.1 13.4-1.1c12.00006 0 21.433299 2.899971 28.3 8.7s10.3 14.03328 10.3 24.7v54.1c0 3.266683.066666 6.033322.2 8.3h-16.8zm47.6-66.8h-16.8v-15h16.8v-30.4h18v30.4h27.2v15h-27.2v45.8c0 7.466704 1.166655 12.599986 3.5 15.4s5.633312 4.2 9.9 4.2c3.466684 0 6.333322-.533328 8.6-1.6s4.533322-2.666656 6.8-4.8l8.2 11c-3.866686 3.733352-7.833313 6.433325-11.9 8.1s-8.899972 2.5-14.5 2.5c-9.866716 0-17.099977-2.66664-21.7-8s-6.9-13.66661-6.9-25zm68.2-15h18v54.6c0 8.800044 1.799982 15.166647 5.4 19.1s8.799966 5.9 15.6 5.9c5.200026 0 9.499983-1.066656 12.9-3.2s6.166656-4.899983 8.3-8.3 3.633329-7.266645 4.5-11.6 1.3-8.766644 1.3-13.3v-43.2h18v83.5c0 3.000015.066666 6.16665.2 9.5h-17.2l-.6-13.8c-1.200006 1.600008-2.666658 3.333324-4.4 5.2s-3.866654 3.566659-6.4 5.1-5.46665 2.833328-8.8 3.9-7.133312 1.6-11.4 1.6c-12.133394 0-21.066638-3.499965-26.8-10.5s-8.6-16.566606-8.6-28.7zm107 93v-84.1c0-2.866681-.066666-5.833318-.2-8.9h17.2l.6 15c1.066672-1.600008 2.466658-3.366657 4.2-5.3s3.833321-3.699992 6.3-5.3 5.333317-2.966661 8.6-4.1 7.033312-1.7 11.3-1.7c2.00001 0 3.833325.133332 5.5.4s3.233326.666664 4.7 1.2l-4 16.8c-2.400012-.933338-5.466648-1.4-9.2-1.4-3.866686 0-7.433317.733326-10.7 2.2s-6.099988 3.499987-8.5 6.1-4.299993 5.633316-5.7 9.1-2.1 7.133314-2.1 11v49zm153.6-13.6c-1.06667 1.200006-2.66666 2.733324-4.8 4.6s-4.89998 3.666658-8.3 5.4-7.39998 3.233327-12 4.5-9.8333 1.9-15.7 1.9c-7.20004 0-13.79997-1.199988-19.8-3.6s-11.13331-5.799978-15.4-10.2-7.56666-9.666636-9.9-15.8c-2.333345-6.133364-3.5-12.933296-3.5-20.4 0-6.800034 1.133322-13.166637 3.4-19.1 2.26668-5.933363 5.46665-11.066645 9.6-15.4s9.03331-7.766654 14.7-10.3c5.6667-2.533346 11.89997-3.8 18.7-3.8 8.00004 0 14.86664 1.533318 20.6 4.6s10.43331 7.133308 14.1 12.2c3.66668 5.066692 6.36666 10.866634 8.1 17.4s2.6 13.333298 2.6 20.4h-73.4c.13333 4.133354 1.03332 7.933316 2.7 11.4 1.66667 3.466684 3.89999 6.466654 6.7 9s5.99998 4.533326 9.6 6 7.39998 2.2 11.4 2.2c7.86671 0 14.33331-1.33332 19.4-4s8.73332-5.266654 11-7.8zm-16.2-41c-.53334-7.200036-3.06664-13.333308-7.6-18.4s-10.93329-7.6-19.2-7.6c-4.26669 0-8.09998.733326-11.5 2.2s-6.29999 3.399988-8.7 5.8-4.26666 5.166651-5.6 8.3-2.06667 6.36665-2.2 9.7zm45.4-78.8h42.2c9.06671 0 16.56664 1.266654 22.5 3.8s10.66665 5.733314 14.2 9.6 5.99999 8.199976 7.4 13 2.1 9.466644 2.1 14c0 6.6667-1.13332 12.533308-3.4 17.6s-5.39998 9.299983-9.4 12.7-8.76664 5.966658-14.3 7.7-11.56663 2.6-18.1 2.6h-24.2v52.4h-19zm43 64.6c8.26671 0 14.63331-2.099979 19.1-6.3s6.7-10.033296 6.7-17.5c0-7.600038-2.29998-13.566645-6.9-17.9s-10.89996-6.5-18.9-6.5h-24v48.2zm144.2 55.2c-1.06667 1.200006-2.66666 2.733324-4.8 4.6s-4.89998 3.666658-8.3 5.4-7.39998 3.233327-12 4.5-9.8333 1.9-15.7 1.9c-7.20004 0-13.79997-1.199988-19.8-3.6s-11.13331-5.799978-15.4-10.2-7.56665-9.666636-9.9-15.8-3.5-12.933296-3.5-20.4c0-6.800034 1.13332-13.166637 3.4-19.1s5.46665-11.066645 9.6-15.4 9.03331-7.766654 14.7-10.3c5.6667-2.533346 11.89997-3.8 18.7-3.8 8.00004 0 14.86664 1.533318 20.6 4.6s10.43331 7.133308 14.1 12.2 6.36666 10.866634 8.1 17.4 2.6 13.333298 2.6 20.4h-73.4c.13333 4.133354 1.03332 7.933316 2.7 11.4 1.66667 3.466684 3.89999 6.466654 6.7 9s5.99998 4.533326 9.6 6 7.39998 2.2 11.4 2.2c7.86671 0 14.33331-1.33332 19.4-4s8.73332-5.266654 11-7.8zm-16.2-41c-.53334-7.200036-3.06664-13.333308-7.6-18.4s-10.93329-7.6-19.2-7.6c-4.26669 0-8.09998.733326-11.5 2.2s-6.29999 3.399988-8.7 5.8-4.26666 5.166651-5.6 8.3-2.06667 6.36665-2.2 9.7zm119.4 41c-1.06667 1.200006-2.66666 2.733324-4.8 4.6s-4.89998 3.666658-8.3 5.4-7.39998 3.233327-12 4.5-9.8333 1.9-15.7 1.9c-7.20004 0-13.79997-1.199988-19.8-3.6s-11.13331-5.799978-15.4-10.2-7.56665-9.666636-9.9-15.8c-2.33334-6.133364-3.5-12.933296-3.5-20.4 0-6.800034 1.13332-13.166637 3.4-19.1s5.46665-11.066645 9.6-15.4 9.03331-7.766654 14.7-10.3 11.89997-3.8 18.7-3.8c8.00004 0 14.86664 1.533318 20.6 4.6s10.43332 7.133308 14.1 12.2c3.66669 5.066692 6.36666 10.866634 8.1 17.4s2.6 13.333298 2.6 20.4h-73.4c.13333 4.133354 1.03333 7.933316 2.7 11.4 1.66668 3.466684 3.89999 6.466654 6.7 9s5.99998 4.533326 9.6 6 7.39998 2.2 11.4 2.2c7.86671 0 14.33331-1.33332 19.4-4s8.73332-5.266654 11-7.8zm-16.2-41c-.53334-7.200036-3.06664-13.333308-7.6-18.4s-10.93329-7.6-19.2-7.6c-4.26669 0-8.09998.733326-11.5 2.2s-6.29999 3.399988-8.7 5.8-4.26666 5.166651-5.6 8.3-2.06667 6.36665-2.2 9.7zm34.4-78.8h18v78.6l39-38.2h21.6l-35.2 34.4 40.4 58.6h-21.4l-31.6-46.6-12.8 12.4v34.2h-18z" fill="#103c52"/></g></svg>